<svg width="215" height="73" viewBox="0 0 215 73" fill="none" xmlns="http://www.w3.org/2000/svg">
<path d="M211.211 24.035C209.376 21.6677 207.025 19.7518 204.338 18.4338C201.65 17.1158 198.697 16.4306 195.704 16.4306C192.711 16.4306 189.758 17.1158 187.07 18.4338C184.382 19.7518 182.031 21.6677 180.197 24.035C177.738 27.5472 176.448 31.7464 176.511 36.035C176.448 40.3236 177.738 44.5228 180.197 48.035C182.031 50.4023 184.382 52.3182 187.07 53.6362C189.758 54.9542 192.711 55.6394 195.704 55.6394C198.697 55.6394 201.65 54.9542 204.338 53.6362C207.025 52.3182 209.376 50.4023 211.211 48.035C213.669 44.5223 214.959 40.3234 214.897 36.035C214.959 31.7466 213.669 27.5477 211.211 24.035ZM205.068 40.535C203.66 44.75 200.318 48.035 195.689 48.14C191.059 48.245 187.718 44.75 186.325 40.535C185.328 37.618 185.328 34.452 186.325 31.535C187.733 27.32 191.074 24.035 195.689 23.93C200.304 23.825 203.66 27.32 205.068 31.535C206.06 34.4477 206.06 37.6073 205.068 40.52V40.535ZM63.855 54.635C63.855 54.9294 63.7382 55.2117 63.5303 55.4199C63.3224 55.6281 63.0404 55.745 62.7463 55.745H56.3037C56.0097 55.745 55.7276 55.6281 55.5197 55.4199C55.3118 55.2117 55.195 54.9294 55.195 54.635V1.61C55.195 1.31561 55.3118 1.03328 55.5197 0.825111C55.7276 0.616946 56.0097 0.5 56.3037 0.5H62.7463C63.0404 0.5 63.3224 0.616946 63.5303 0.825111C63.7382 1.03328 63.855 1.31561 63.855 1.61V54.635ZM48.7224 54.635C48.7224 54.9294 48.6056 55.2117 48.3977 55.4199C48.1897 55.6281 47.9077 55.745 47.6137 55.745H41.1711C40.877 55.745 40.595 55.6281 40.3871 55.4199C40.1792 55.2117 40.0623 54.9294 40.0623 54.635V1.61C40.0623 1.31819 40.1771 1.03811 40.3818 0.830368C40.5865 0.622628 40.8646 0.503943 41.1561 0.5H47.5987C47.8927 0.5 48.1748 0.616946 48.3827 0.825111C48.5906 1.03328 48.7074 1.31561 48.7074 1.61V54.635H48.7224ZM175.057 18.635V23.135C175.084 23.3292 175.06 23.5269 174.99 23.7098C174.92 23.8928 174.805 24.0552 174.656 24.1821C174.507 24.309 174.328 24.3964 174.137 24.4362C173.945 24.476 173.746 24.467 173.559 24.41C166.278 22.91 161.798 26.15 161.798 32.885V54.635C161.798 54.9294 161.681 55.2117 161.473 55.4199C161.265 55.6281 160.983 55.745 160.689 55.745H154.246C153.952 55.745 153.67 55.6281 153.462 55.4199C153.254 55.2117 153.138 54.9294 153.138 54.635V32.42C153.099 30.3187 153.502 28.2327 154.32 26.2973C155.138 24.3618 156.354 22.6201 157.887 21.185C161.037 18.1022 165.274 16.3881 169.679 16.415C171.187 16.419 172.691 16.5596 174.173 16.835C174.938 17.09 175.057 17.54 175.057 18.695V18.635ZM147.474 36.02C147.556 31.7288 146.264 27.5239 143.788 24.02C141.954 21.6527 139.603 19.7368 136.915 18.4188C134.227 17.1008 131.274 16.4156 128.281 16.4156C125.288 16.4156 122.335 17.1008 119.647 18.4188C116.96 19.7368 114.609 21.6527 112.774 24.02C110.339 27.5469 109.035 31.7326 109.035 36.02C109.035 40.3074 110.339 44.4931 112.774 48.02C114.579 50.4194 116.924 52.3586 119.619 53.68C122.313 55.0015 125.281 55.6678 128.281 55.625C132.211 55.6379 136.055 54.4786 139.323 52.295V57.035C139.323 63.47 133.705 64.64 130.109 64.865C127.635 64.9469 125.158 64.8114 122.708 64.46C121.719 64.31 121.029 64.46 121.029 65.525V71.225C121.035 71.3531 121.066 71.4788 121.121 71.5949C121.175 71.711 121.252 71.8152 121.346 71.9016C121.441 71.988 121.552 72.0548 121.672 72.0983C121.793 72.1418 121.92 72.161 122.048 72.155C130.394 72.875 136.012 72.725 140.237 70.31C143.197 68.5576 145.394 65.7587 146.395 62.465C147.143 59.9237 147.501 57.2838 147.459 54.635V36.02H147.474ZM128.281 48.11C123.651 48.11 120.31 44.72 118.902 40.505C117.905 37.588 117.905 34.422 118.902 31.505C120.31 27.29 123.651 23.9 128.281 23.9C138.634 23.9 138.979 34.475 138.979 36.005C138.979 37.535 138.634 48.11 128.281 48.11ZM34.1591 32.135C34.1591 27.02 33.0204 23.135 30.5632 20.45C28.1061 17.765 23.1617 16.43 18.577 16.43C13.9749 16.412 9.45069 17.6181 5.46703 19.925C5.34233 19.9988 5.23928 20.1043 5.16826 20.2307C5.09724 20.3571 5.06076 20.5 5.06249 20.645L5.40709 26.285C5.43771 26.4605 5.51434 26.6246 5.62916 26.7607C5.74397 26.8967 5.89284 26.9998 6.06052 27.0593C6.2282 27.1188 6.40867 27.1327 6.58345 27.0994C6.75823 27.0661 6.92104 26.987 7.0552 26.87C12.6738 23.405 19.416 22.76 22.8471 24.5C23.791 25.0447 24.5688 25.8366 25.0968 26.7907C25.6248 27.7448 25.883 28.825 25.8437 29.915V30.74H16.4794C12.449 30.74 0.103179 32.24 0.103179 43.595V43.715C0.0071106 45.443 0.319268 47.1692 1.01432 48.7538C1.70938 50.3384 2.76776 51.7366 4.10359 52.835C7.02148 54.8928 10.5487 55.9025 14.1121 55.7H33.0654C33.3594 55.7 33.6414 55.5831 33.8494 55.3749C34.0573 55.1667 34.1741 54.8844 34.1741 54.59V32.09L34.1591 32.135ZM25.8437 48.77H14.6515C13.2155 48.7288 11.8279 48.2412 10.681 47.375C10.0911 46.9603 9.61188 46.407 9.28535 45.7636C8.95881 45.1203 8.79497 44.4065 8.80819 43.685C8.80819 41.66 10.1716 37.61 16.9888 37.61H25.8437V48.77ZM87.5728 16.43C76.111 16.43 71.0917 24.125 69.4886 30.635C69.0477 32.3908 68.8262 34.1946 68.8293 36.005C68.7674 40.2934 70.0571 44.4923 72.5151 48.005C74.352 50.3699 76.7035 52.2841 79.3907 53.6019C82.0779 54.9198 85.03 55.6066 88.0223 55.61C94.2102 55.835 98.3455 54.785 101.507 52.985C101.815 52.7859 102.053 52.495 102.188 52.1532C102.322 51.8114 102.346 51.4361 102.256 51.08V46.085C102.256 45.065 101.642 44.585 100.758 45.2C97.0574 47.5742 92.6659 48.6311 88.292 48.2C85.8011 48.1671 83.4083 47.2231 81.5647 45.5459C79.721 43.8687 78.554 41.5742 78.2835 39.095H103.754C104.03 39.095 104.294 38.9865 104.491 38.7928C104.687 38.5991 104.799 38.3359 104.803 38.06C105.253 31.085 103.23 16.43 87.5728 16.43ZM78.4183 32.195C78.4699 31.0467 78.749 29.9201 79.2395 28.8808C79.73 27.8415 80.422 26.9103 81.2752 26.1412C82.1285 25.3721 83.126 24.7805 84.2097 24.4009C85.2934 24.0213 86.4417 23.8612 87.5878 23.93C88.6847 23.8628 89.7832 24.0314 90.8096 24.4244C91.836 24.8175 92.7665 25.4259 93.5386 26.2088C94.3107 26.9917 94.9064 27.9309 95.2859 28.9634C95.6653 29.996 95.8196 31.0978 95.7385 32.195H78.4183Z" fill="#FF5A00"/>
</svg>
