<svg width="172" height="39" viewBox="0 0 172 39" fill="none" xmlns="http://www.w3.org/2000/svg">
<g clip-path="url(#clip0_1_5)">
<path d="M37.0528 28.8221C35.8888 28.8221 35.306 28.2169 35.306 27.0081V16.2902C35.306 15.1 35.8795 14.5042 37.0251 14.5042C38.1707 14.5042 38.7442 15.1 38.7442 16.2902V16.8566C39.1574 16.1009 39.731 15.5143 40.4633 15.0985C41.1957 14.664 42.0406 14.4467 42.9996 14.4467C45.0656 14.4467 46.4178 15.3545 47.0561 17.1685C47.4878 16.3182 48.1076 15.6571 48.9156 15.1838C49.7235 14.6919 50.6439 14.4467 51.6769 14.4467C54.776 14.4467 56.3255 16.3461 56.3255 20.1463V27.0081C56.3255 28.2185 55.7334 28.8221 54.5509 28.8221C53.3683 28.8221 52.804 28.2169 52.804 27.0081V20.2875C52.804 19.2292 52.6252 18.4549 52.269 17.963C51.9313 17.4711 51.3485 17.2259 50.5221 17.2259C49.6017 17.2259 48.8785 17.5564 48.3528 18.219C47.827 18.8615 47.5634 19.7599 47.5634 20.9129V27.0097C47.5634 28.22 46.9806 28.8237 45.8165 28.8237C44.6524 28.8237 44.0419 28.2185 44.0419 27.0097V20.2891C44.0419 19.2308 43.863 18.4565 43.5069 17.9646C43.1692 17.4726 42.5957 17.2275 41.7877 17.2275C40.8673 17.2275 40.1442 17.558 39.6184 18.2206C39.0927 18.863 38.829 19.7615 38.829 20.9144V27.0112C38.829 28.2216 38.237 28.8252 37.0544 28.8252L37.0528 28.8221Z" fill="#E52521"/>
<path d="M65.1138 28.8795C63.6861 28.8795 62.4465 28.5862 61.395 28.0012C60.3435 27.4162 59.5263 26.5829 58.9435 25.506C58.3607 24.4105 58.0708 23.1241 58.0708 21.6499C58.0708 20.1758 58.3622 18.8987 58.9435 17.8218C59.5263 16.7449 60.3435 15.9131 61.395 15.3266C62.4465 14.7416 63.6861 14.4483 65.1138 14.4483C66.5415 14.4483 67.7812 14.7416 68.8327 15.3266C69.8842 15.9131 70.7014 16.7449 71.2842 17.8218C71.867 18.8987 72.1568 20.1758 72.1568 21.6499C72.1568 23.1241 71.8654 24.4105 71.2842 25.506C70.7014 26.5829 69.8842 27.4162 68.8327 28.0012C67.7812 28.5878 66.5415 28.8795 65.1138 28.8795ZM65.1138 26.1857C66.1653 26.1857 67.0103 25.8071 67.6501 25.0514C68.2884 24.277 68.6076 23.1427 68.6076 21.6484C68.6076 20.1541 68.2884 19.012 67.6501 18.2733C67.0118 17.5176 66.1669 17.139 65.1138 17.139C64.0608 17.139 63.2174 17.5176 62.5775 18.2733C61.9392 19.0104 61.6201 20.1354 61.6201 21.6484C61.6201 23.1613 61.9392 24.2755 62.5775 25.0514C63.2159 25.8071 64.0608 26.1857 65.1138 26.1857Z" fill="#E52521"/>
<path d="M81.8811 28.8795C80.8665 28.8795 79.9646 28.6623 79.1767 28.2278C78.3873 27.7747 77.7968 27.1695 77.4021 26.4138V27.0097C77.4021 28.22 76.8285 28.8237 75.683 28.8237C74.5374 28.8237 73.9361 28.2185 73.9361 27.0097V10.1655C73.9361 8.9753 74.5189 8.37943 75.683 8.37943C76.847 8.37943 77.4576 8.9753 77.4576 10.1655V16.7728C77.8708 16.073 78.4629 15.5159 79.2322 15.1C80.0216 14.6655 80.9035 14.4483 81.8811 14.4483C83.1022 14.4483 84.1629 14.7416 85.0649 15.3266C85.9669 15.9131 86.6715 16.7449 87.1787 17.8218C87.686 18.8801 87.9388 20.1572 87.9388 21.6499C87.9388 23.1427 87.686 24.4105 87.1787 25.506C86.6715 26.5829 85.9576 27.4162 85.0371 28.0012C84.1352 28.5878 83.0837 28.8795 81.8811 28.8795ZM80.8943 26.1857C81.9458 26.1857 82.7907 25.8071 83.4306 25.0514C84.0689 24.277 84.388 23.1427 84.388 21.6484C84.388 20.1541 84.0689 19.012 83.4306 18.2733C82.7923 17.5176 81.9474 17.139 80.8943 17.139C79.8412 17.139 78.9963 17.5176 78.358 18.2733C77.7197 19.0104 77.4005 20.1354 77.4005 21.6484C77.4005 23.1613 77.7197 24.2755 78.358 25.0514C78.9963 25.8071 79.8412 26.1857 80.8943 26.1857Z" fill="#E52521"/>
<path d="M91.4495 28.7942C90.8868 28.7942 90.4535 28.6235 90.1529 28.2836C89.8522 27.9438 89.7027 27.4705 89.7027 26.8654V16.4594C89.7027 15.1745 90.2839 14.5305 91.4495 14.5305C92.6152 14.5305 93.2242 15.173 93.2242 16.4594V26.8654C93.2242 27.4705 93.0731 27.9423 92.774 28.2836C92.4733 28.6235 92.0323 28.7942 91.4495 28.7942Z" fill="#E52521"/>
<path d="M153.933 12.76C154.591 12.7336 155.16 12.4807 155.638 11.9981C156.121 11.5124 156.374 10.9398 156.395 10.2819C156.422 9.61926 156.212 9.06374 155.766 8.61684C155.322 8.16993 154.77 7.9589 154.112 7.98528C153.458 8.007 152.889 8.25994 152.407 8.74718C151.927 9.22978 151.676 9.80082 151.65 10.4634C151.623 11.126 151.833 11.6815 152.277 12.1284C152.721 12.5753 153.273 12.7864 153.932 12.7615L153.933 12.76Z" fill="white"/>
<path d="M91.2321 12.76C91.8905 12.7336 92.4594 12.4807 92.9374 11.9981C93.4154 11.5155 93.6728 10.9398 93.6944 10.2819C93.7206 9.61926 93.5109 9.06374 93.0654 8.61684C92.6198 8.16993 92.0694 7.9589 91.411 7.98528C90.7573 8.007 90.1883 8.25994 89.7058 8.74718C89.2232 9.23443 88.9749 9.80082 88.9487 10.4634C88.9225 11.126 89.1322 11.6815 89.5762 12.1284C90.0203 12.5753 90.5723 12.7864 91.2306 12.7615L91.2321 12.76Z" fill="#E30613"/>
<path d="M97.6892 15.0597V11.6645H101.706V14.5523H105.155V18.2733H101.706V23.8457C101.706 24.4338 101.855 24.8869 102.156 25.2065C102.457 25.5262 102.881 25.686 103.431 25.686C104.066 25.686 104.606 25.5138 105.053 25.1677L106.134 28.0183C105.739 28.3116 105.253 28.5319 104.678 28.6793C104.103 28.8252 103.497 28.8997 102.864 28.8997C101.215 28.8997 99.9418 28.4761 99.0399 27.6304C98.1395 26.7847 97.6877 25.5402 97.6877 23.8984V15.0612L97.6892 15.0597Z" fill="white"/>
<path d="M113.667 15.0597C114.483 14.7136 115.422 14.5414 116.487 14.5414V18.2733C116.04 18.2392 115.741 18.2221 115.587 18.2221C114.436 18.2221 113.534 18.5465 112.882 19.1935C112.23 19.8422 111.903 20.8135 111.903 22.1093V28.6918H107.887V14.5414H111.723V16.5881C112.204 15.9147 112.851 15.4057 113.667 15.0597Z" fill="white"/>
<path d="M120.903 27.978C119.743 27.365 118.838 26.5131 118.186 25.4253C117.534 24.3376 117.207 23.1024 117.207 21.7198C117.207 20.3372 117.532 19.102 118.186 18.0142C118.838 16.9264 119.743 16.0745 120.903 15.4616C122.062 14.8486 123.37 14.5414 124.83 14.5414C126.29 14.5414 127.593 14.8486 128.743 15.4616C129.893 16.0745 130.794 16.9264 131.446 18.0142C132.098 19.102 132.425 20.3387 132.425 21.7198C132.425 23.1008 132.098 24.3376 131.446 25.4253C130.794 26.5131 129.892 27.365 128.743 27.978C127.593 28.5909 126.288 28.8981 124.83 28.8981C123.371 28.8981 122.062 28.5909 120.903 27.978ZM127.366 24.5315C128.026 23.8317 128.357 22.8944 128.357 21.7198C128.357 20.5451 128.028 19.6078 127.366 18.908C126.705 18.2082 125.86 17.859 124.83 17.859C123.8 17.859 122.95 18.2082 122.281 18.908C121.612 19.6078 121.277 20.5451 121.277 21.7198C121.277 22.8944 121.612 23.8317 122.281 24.5315C122.95 25.2314 123.8 25.5805 124.83 25.5805C125.86 25.5805 126.705 25.2314 127.366 24.5315Z" fill="white"/>
<path d="M147.166 16.0962C148.222 17.1328 148.749 18.6706 148.749 20.7096V28.6918H144.733V21.3318C144.733 20.227 144.493 19.4015 144.011 18.8568C143.53 18.3121 142.835 18.0406 141.925 18.0406C140.912 18.0406 140.106 18.3556 139.505 18.9871C138.903 19.6187 138.604 20.5544 138.604 21.7989V28.6918H134.588V14.7478H138.424V16.3802C138.956 15.7937 139.617 15.339 140.407 15.0193C141.196 14.6997 142.063 14.5398 143.008 14.5398C144.724 14.5398 146.11 15.0581 147.166 16.0947V16.0962Z" fill="white"/>
<path d="M151.864 14.7478H155.88V28.6902H151.864V14.7478Z" fill="white"/>
<path d="M161.816 27.978C160.64 27.365 159.723 26.5131 159.061 25.4253C158.4 24.3376 158.07 23.1024 158.07 21.7198C158.07 20.3372 158.4 19.102 159.061 18.0142C159.721 16.9264 160.64 16.0745 161.816 15.4616C162.991 14.8486 164.317 14.5414 165.794 14.5414C167.271 14.5414 168.528 14.8486 169.618 15.4616C170.708 16.0745 171.502 16.9513 172 18.0918L168.884 19.7754C168.162 18.4968 167.125 17.8575 165.768 17.8575C164.721 17.8575 163.853 18.2035 163.167 18.894C162.481 19.5846 162.137 20.5265 162.137 21.7182C162.137 22.91 162.481 23.8519 163.167 24.5424C163.853 25.2329 164.72 25.579 165.768 25.579C167.142 25.579 168.179 24.9396 168.884 23.661L172 25.371C171.502 26.4774 170.708 27.3402 169.618 27.9624C168.528 28.5847 167.253 28.895 165.794 28.895C164.336 28.895 162.991 28.5878 161.816 27.9749V27.978Z" fill="white"/>
<path d="M17.8496 39H7.32978C3.28715 39 0 35.6901 0 31.623V20.5761C0 19.7211 0.687649 19.0291 1.53719 19.0291C2.38673 19.0291 3.07437 19.7211 3.07437 20.5761V31.623C3.07437 33.9848 4.98314 35.9058 7.33132 35.9058H17.8496C20.1962 35.9058 22.1065 33.9848 22.1065 31.623V26.2524C22.1065 25.3974 22.7942 24.7053 23.6437 24.7053C24.4932 24.7053 25.1809 25.3974 25.1809 26.2524V31.623C25.1809 35.6917 21.8922 39 17.8511 39H17.8496Z" fill="white"/>
<path d="M17.8496 0H7.32978C3.28869 0 0 3.30987 0 7.377V15.3561C0 16.2095 0.687649 16.9032 1.53719 16.9032C2.38673 16.9032 3.07437 16.2111 3.07437 15.3561V7.377C3.07437 6.03318 3.69264 4.83213 4.65782 4.04695C5.19437 7.58803 8.23945 10.3082 11.9043 10.3082H13.4292C17.0555 10.3082 20.0729 7.64389 20.6557 4.16023C21.5438 4.94541 22.1065 6.09681 22.1065 7.377V21.0323C22.1065 21.8874 22.7942 22.5794 23.6437 22.5794C24.4932 22.5794 25.1809 21.8874 25.1809 21.0323V7.377C25.1793 3.30987 21.8907 0 17.8496 0ZM13.4292 7.21406H11.9043C9.61166 7.21406 7.73836 5.3799 7.65202 3.09263H17.68C17.5952 5.3799 15.7203 7.21406 13.4276 7.21406H13.4292Z" fill="#E52521"/>
<path d="M16.6485 15.6726C17.6892 15.6726 18.4833 15.9861 19.0291 16.6145C19.5887 17.2306 19.8678 18.2314 19.8678 19.6187V24.4493C19.8678 24.8295 19.7506 25.1243 19.5163 25.3338C19.2958 25.5309 19.0029 25.6286 18.639 25.6286C18.2751 25.6286 17.9945 25.5309 17.7602 25.3338C17.5397 25.1243 17.4287 24.8295 17.4287 24.4493V19.6187C17.4287 18.8987 17.2991 18.3882 17.0386 18.0871C16.7919 17.7721 16.408 17.6154 15.8868 17.6154C15.2501 17.6154 14.7428 17.8373 14.3651 18.2827C13.9873 18.714 13.7992 19.3099 13.7992 20.0703V24.4493C13.7992 24.8295 13.6821 25.1243 13.4477 25.3338C13.2257 25.5309 12.9404 25.6286 12.5889 25.6286C12.2374 25.6286 11.946 25.5309 11.7116 25.3338C11.4773 25.1243 11.3601 24.8295 11.3601 24.4493V19.6187C11.3601 18.8987 11.2306 18.3882 10.97 18.0871C10.7233 17.7721 10.3394 17.6154 9.81827 17.6154C9.1815 17.6154 8.67425 17.8373 8.2965 18.2827C7.93264 18.714 7.7507 19.3099 7.7507 20.0703V24.4493C7.7507 24.8295 7.63352 25.1243 7.39917 25.3338C7.16481 25.5309 6.87187 25.6286 6.52034 25.6286C6.1688 25.6286 5.8774 25.5309 5.64304 25.3338C5.42256 25.1243 5.31155 24.8295 5.31155 24.4493V16.8488C5.31155 16.4826 5.42873 16.2002 5.66309 16.0047C5.89744 15.8076 6.19039 15.7099 6.54038 15.7099C6.89037 15.7099 7.15248 15.8076 7.36062 16.0047C7.58264 16.1878 7.69211 16.4562 7.69211 16.81V17.2818C7.99122 16.7588 8.38901 16.3585 8.88239 16.0838C9.38965 15.8092 9.96937 15.6711 10.6185 15.6711C12.0493 15.6711 13.0052 16.2731 13.4878 17.4773C13.773 16.928 14.197 16.4888 14.7567 16.1614C15.3164 15.834 15.947 15.6711 16.65 15.6711L16.6485 15.6726Z" fill="white"/>
<path d="M14.419 33.1577C14.419 34.1741 13.6003 34.9996 12.5889 34.9996C11.5775 34.9996 10.7588 34.1756 10.7588 33.1577C10.7588 32.1397 11.5775 31.3158 12.5889 31.3158C13.6003 31.3158 14.419 32.1397 14.419 33.1577Z" fill="white"/>
</g>
<defs>
<clipPath id="clip0_1_5">
<rect width="172" height="39" fill="white"/>
</clipPath>
</defs>
</svg>
