<svg width="46" height="35" viewBox="0 0 46 35" fill="none" xmlns="http://www.w3.org/2000/svg">
<path d="M22.8928 13.9292L19.0142 15.9205C18.8991 15.9792 18.7696 16.0054 18.6402 15.9962C18.5108 15.9869 18.3866 15.9426 18.2814 15.8682C18.1762 15.7938 18.0941 15.6922 18.0444 15.5747C17.9947 15.4573 17.9793 15.3286 18 15.2031L18.741 10.9843L15.6036 7.99738C15.5099 7.90867 15.4436 7.79595 15.4122 7.67208C15.3808 7.54821 15.3856 7.41818 15.426 7.29684C15.4664 7.17551 15.5408 7.06775 15.6407 6.98586C15.7406 6.90398 15.862 6.85128 15.9911 6.83376L20.3267 6.21783L22.266 2.38052C22.324 2.26623 22.4134 2.17006 22.5241 2.10284C22.6348 2.03561 22.7625 2 22.8928 2C23.023 2 23.1507 2.03561 23.2614 2.10284C23.3722 2.17006 23.4615 2.26623 23.5195 2.38052L25.4588 6.21783L29.7945 6.83376C29.9231 6.8519 30.044 6.90494 30.1435 6.9869C30.243 7.06886 30.317 7.17646 30.3574 7.29753C30.3977 7.41861 30.4026 7.54832 30.3716 7.672C30.3406 7.79567 30.2749 7.90839 30.182 7.99738L27.0445 10.9843L27.7838 15.2013C27.806 15.3271 27.7917 15.4564 27.7427 15.5746C27.6936 15.6928 27.6117 15.7952 27.5063 15.8701C27.4008 15.945 27.276 15.9894 27.1461 15.9983C27.0162 16.0072 26.8863 15.9803 26.7713 15.9205L22.8928 13.9292Z" stroke="#FF5A00" stroke-width="3" stroke-linecap="round" stroke-linejoin="round"/>
<path d="M36.501 30.9292L32.6225 32.9205C32.5074 32.9792 32.3779 33.0054 32.2485 32.9962C32.1191 32.9869 31.9949 32.9426 31.8896 32.8682C31.7844 32.7938 31.7024 32.6922 31.6527 32.5747C31.603 32.4573 31.5876 32.3286 31.6082 32.2031L32.3493 27.9843L29.2118 24.9974C29.1182 24.9087 29.0519 24.7959 29.0205 24.6721C28.9891 24.5482 28.9939 24.4182 29.0343 24.2968C29.0747 24.1755 29.1491 24.0677 29.249 23.9859C29.3489 23.904 29.4703 23.8513 29.5993 23.8338L33.935 23.2178L35.8743 19.3805C35.9323 19.2662 36.0216 19.1701 36.1324 19.1028C36.2431 19.0356 36.3708 19 36.501 19C36.6313 19 36.759 19.0356 36.8697 19.1028C36.9804 19.1701 37.0698 19.2662 37.1278 19.3805L39.0671 23.2178L43.4027 23.8338C43.5314 23.8519 43.6523 23.9049 43.7518 23.9869C43.8512 24.0689 43.9253 24.1765 43.9656 24.2975C44.006 24.4186 44.0109 24.5483 43.9799 24.672C43.9489 24.7957 43.8832 24.9084 43.7902 24.9974L40.6528 27.9843L41.3921 32.2013C41.4142 32.3271 41.4 32.4564 41.3509 32.5746C41.3019 32.6928 41.22 32.7952 41.1145 32.8701C41.0091 32.945 40.8843 32.9894 40.7544 32.9983C40.6245 33.0072 40.4946 32.9803 40.3796 32.9205L36.501 30.9292Z" stroke="#FF5A00" stroke-width="3" stroke-linecap="round" stroke-linejoin="round"/>
<path d="M9.50104 30.9292L5.62251 32.9205C5.50741 32.9792 5.37793 33.0054 5.24851 32.9962C5.1191 32.9869 4.99485 32.9426 4.88964 32.8682C4.78444 32.7938 4.7024 32.6922 4.65271 32.5747C4.60302 32.4573 4.58762 32.3286 4.60824 32.2031L5.3493 27.9843L2.21183 24.9974C2.11819 24.9087 2.05188 24.7959 2.02048 24.6721C1.98909 24.5482 1.99386 24.4182 2.03427 24.2968C2.07468 24.1755 2.14908 24.0677 2.249 23.9859C2.34891 23.904 2.47031 23.8513 2.59933 23.8338L6.93499 23.2178L8.87426 19.3805C8.93225 19.2662 9.02164 19.1701 9.13237 19.1028C9.2431 19.0356 9.37078 19 9.50104 19C9.63129 19 9.75897 19.0356 9.8697 19.1028C9.98043 19.1701 10.0698 19.2662 10.1278 19.3805L12.0671 23.2178L16.4027 23.8338C16.5314 23.8519 16.6523 23.9049 16.7518 23.9869C16.8512 24.0689 16.9253 24.1765 16.9656 24.2975C17.006 24.4186 17.0109 24.5483 16.9799 24.672C16.9489 24.7957 16.8832 24.9084 16.7902 24.9974L13.6528 27.9843L14.3921 32.2013C14.4142 32.3271 14.4 32.4564 14.3509 32.5746C14.3019 32.6928 14.22 32.7952 14.1145 32.8701C14.0091 32.945 13.8843 32.9894 13.7544 32.9983C13.6245 33.0072 13.4946 32.9803 13.3796 32.9205L9.50104 30.9292Z" stroke="#FF5A00" stroke-width="3" stroke-linecap="round" stroke-linejoin="round"/>
</svg>
